<svg xmlns="http://www.w3.org/2000/svg" viewBox="0 0 32 32"><title>archery target</title><g fill="#ed098f" class="nc-icon-wrapper"><path fill="#ed098f" d="M13,32C5.832,32,0,26.168,0,19S5.832,6,13,6c1.1,0,2.194,0.138,3.252,0.41l0.969,0.25l-0.499,1.937 l-0.968-0.249C14.859,8.117,13.932,8,13,8C6.935,8,2,12.935,2,19s4.935,11,11,11s11-4.935,11-11c0-0.933-0.117-1.859-0.347-2.755 l-0.25-0.968l1.937-0.499l0.249,0.969C25.862,16.805,26,17.899,26,19C26,26.168,20.168,32,13,32z"></path> <path fill="#ed098f" d="M13,27c-4.411,0-8-3.589-8-8s3.589-8,8-8s8,3.589,8,8S17.411,27,13,27z M13,13c-3.309,0-6,2.691-6,6 s2.691,6,6,6s6-2.691,6-6S16.309,13,13,13z"></path> <path data-color="color-2" d="M26.329,13.086l5.7-5.7l-5-1l2.679-2.679c0.391-0.391,0.391-1.023,0-1.414 s-1.023-0.391-1.414,0l-2.679,2.679l-1-5l-5.7,5.699l1,5l-5.629,5.629C13.894,16.113,13.462,16,13,16c-1.654,0-3,1.346-3,3 s1.346,3,3,3s3-1.346,3-3c0-0.462-0.113-0.894-0.301-1.285l5.629-5.629L26.329,13.086z M13.675,19.728 c-0.086,0.08-0.183,0.148-0.292,0.194C13.489,19.879,13.586,19.811,13.675,19.728z M12.269,18.329 c-0.081,0.088-0.148,0.184-0.192,0.288C12.122,18.509,12.191,18.414,12.269,18.329z M12.269,19.671 c-0.078-0.085-0.146-0.18-0.192-0.288C12.121,19.487,12.188,19.583,12.269,19.671z M12.325,19.728 c0.089,0.082,0.186,0.15,0.292,0.194C12.508,19.877,12.411,19.808,12.325,19.728z"></path></g></svg>