<svg xmlns="http://www.w3.org/2000/svg" viewBox="0 0 64 64"><title>b comment</title><g fill="#ed098f" class="nc-icon-wrapper"><path data-color="color-2" d="M58.428,29.657C55.71,40.669,43.55,49,29,49a37.1,37.1,0,0,1-6.961-.666L21.9,48.4C25.761,53.637,33.036,57,41,57a27.9,27.9,0,0,0,6.7-.816l7.79,4.674A1.012,1.012,0,0,0,56,61a1,1,0,0,0,1-1V51.669C60.874,48.5,63,44.375,63,40A14.552,14.552,0,0,0,58.428,29.657Z"></path><path d="M8,53a1,1,0,0,1-1-1V38.6A19.281,19.281,0,0,1,1,25C1,12.869,13.561,3,29,3s28,9.869,28,22S44.439,47,29,47a35.173,35.173,0,0,1-7.241-.762L8.447,52.9A1,1,0,0,1,8,53Z" fill="#ed098f"></path></g></svg>