<svg xmlns="http://www.w3.org/2000/svg" viewBox="0 0 64 64"><title>nodes</title><g fill="#ed098f" class="nc-icon-wrapper"><path d="M25.071,36a7.945,7.945,0,0,1-.439-.9L14.443,40.982a6,6,0,1,0,.335,7.633L24.5,54.23a7.985,7.985,0,0,1,.921-1.777l-9.717-5.611a5.981,5.981,0,0,0-.181-4.177l10.105-5.834A8.067,8.067,0,0,1,25.071,36Z" fill="#ed098f"></path><path d="M38.929,28a7.945,7.945,0,0,1,.439.9l10.189-5.883a6,6,0,1,0-.335-7.633L39.5,9.77a7.985,7.985,0,0,1-.921,1.777l9.717,5.611a5.981,5.981,0,0,0,.181,4.177l-10.1,5.834A8.067,8.067,0,0,1,38.929,28Z" fill="#ed098f"></path><circle cx="32.001" cy="32" r="6" data-color="color-2"></circle><path d="M46.536,47.856l-9.7,5.6A6,6,0,0,0,33,51.09V39.93A7.874,7.874,0,0,1,32,40a8.031,8.031,0,0,1-1-.069V51.09a6,6,0,1,0,6.736,4.156l9.745-5.626A7.954,7.954,0,0,1,46.536,47.856Z" fill="#ed098f"></path><path d="M55,39.09V26.931a7.281,7.281,0,0,1-2,0V39.09a5.984,5.984,0,0,0-3.443,1.892L39.368,35.1a7.181,7.181,0,0,1-1,1.732l10.1,5.834A6,6,0,1,0,55,39.09Z" fill="#ed098f"></path><path d="M17.464,16.144l9.7-5.6A6,6,0,0,0,31,12.91V24.07A7.874,7.874,0,0,1,32,24a8.031,8.031,0,0,1,1,.069V12.91a6,6,0,1,0-6.736-4.156L16.519,14.38A7.954,7.954,0,0,1,17.464,16.144Z" fill="#ed098f"></path><path d="M9,24.91V37.069A8.047,8.047,0,0,1,10,37a8.047,8.047,0,0,1,1,.069V24.91a5.984,5.984,0,0,0,3.443-1.892L24.632,28.9a7.181,7.181,0,0,1,1-1.732L15.527,21.335A6,6,0,1,0,9,24.91Z" fill="#ed098f"></path></g></svg>