<svg xmlns="http://www.w3.org/2000/svg" viewBox="0 0 64 64"><title>pig</title><g fill="#ed098f" class="nc-icon-wrapper"><circle data-color="color-2" cx="37" cy="8" r="7"></circle> <path fill="#ed098f" d="M45,21H25.555c-5.152-8.187-13.729-5.989-13.815-5.966c-0.266,0.072-0.49,0.25-0.621,0.492 c-0.13,0.243-0.155,0.528-0.068,0.79l2.846,8.537c-2.686,2.111-4.739,4.962-5.87,8.146H2c-0.552,0-1,0.447-1,1v14 c0,0.553,0.448,1,1,1h8.053c2.376,3.551,5.869,6.107,9.947,7.285V62c0,0.553,0.448,1,1,1h10c0.552,0,1-0.447,1-1v-5h8v5 c0,0.553,0.448,1,1,1h10c0.552,0,1-0.447,1-1v-6.434C58.608,52.77,63,46.199,63,39C63,29.075,54.925,21,45,21z M18.5,37 c-1.381,0-2.5-1.119-2.5-2.5c0-1.381,1.119-2.5,2.5-2.5c1.381,0,2.5,1.119,2.5,2.5C21,35.881,19.881,37,18.5,37z M43,29H31 c-0.552,0-1-0.447-1-1s0.448-1,1-1h12c0.552,0,1,0.447,1,1S43.552,29,43,29z"></path></g></svg>