<svg xmlns="http://www.w3.org/2000/svg" height="32" width="32" viewBox="0 0 64 64"><title>blockchain</title><g fill="#ed098f" class="nc-icon-wrapper"><path d="M33,47.645V60.71c.024-.014.05-.018.073-.033l11-7A2,2,0,0,0,45,51.992V40.012Z" fill="#ed098f"></path><path d="M31,47.645,19,40.011V51.992a2,2,0,0,0,.927,1.688l11,7c.023.015.049.019.073.033Z" fill="#ed098f"></path><path d="M32,21.693l12-7.634L33.076,7.086a2,2,0,0,0-2.152,0L20,14.059Z" fill="#ed098f"></path><path d="M12,35.556,0,27.922V39.9A2,2,0,0,0,.927,41.59l11,7c.023.014.049.019.073.033Z" data-color="color-2"></path><path d="M52,35.556l12-7.634V39.9a2,2,0,0,1-.927,1.687l-11,7c-.023.014-.049.019-.073.033Z" data-color="color-2"></path><path d="M47,38.914a2,2,0,0,0-.924-1.686L38,32.074V27.922l12,7.634V48.621c-.024-.014-.05-.019-.073-.033L47,46.726Z" data-color="color-2"></path><path d="M13,33.821l12-7.634L14.076,19.214a2,2,0,0,0-2.152,0L1,26.187Z" data-color="color-2"></path><path d="M17,38.914a2,2,0,0,1,.924-1.686L26,32.074V27.922L14,35.556V48.621c.024-.014.05-.019.073-.033L17,46.726Z" data-color="color-2"></path><path d="M32,45.91l12-7.634L33.076,31.3a2,2,0,0,0-2.152,0L20,38.276Z" fill="#ed098f"></path><path d="M14.076,19.214a2,2,0,0,0-2.152,0L1,26.187l12,7.634,12-7.634Z" data-color="color-2"></path><path d="M49.924,19.214a2,2,0,0,1,2.152,0L63,26.187,51,33.821,39,26.187Z" data-color="color-2"></path><path d="M26,27.922,14,35.556V48.621c.024-.014.05-.019.073-.033L17,46.726V38.914a2,2,0,0,1,.924-1.686L26,32.074Z" data-color="color-2"></path><path d="M27.076,25.138A2,2,0,0,1,28,26.824V30.8l1.848-1.179A4,4,0,0,1,31,29.123V23.428L19,15.794v4.19Z" fill="#ed098f"></path><path d="M36.924,25.138A2,2,0,0,0,36,26.824V30.8l-1.848-1.179A4,4,0,0,0,33,29.123V23.428l12-7.634v4.19Z" fill="#ed098f"></path><path d="M33.076,31.3a2,2,0,0,0-2.152,0L20,38.276,32,45.91l12-7.634Z" fill="#ed098f"></path></g></svg>